<svg width="39" height="25" viewBox="0 0 39 25" fill="none" xmlns="http://www.w3.org/2000/svg">
<path d="M31.958 10.6317C31.2679 10.6313 30.5816 10.7311 29.9211 10.9279L26.0338 2.09849H30.062C30.2761 2.09645 30.4808 2.01127 30.6315 1.86146C30.7822 1.71166 30.8667 1.50935 30.8667 1.29851C30.8667 1.08768 30.7822 0.885365 30.6315 0.735562C30.4808 0.585758 30.2761 0.500577 30.062 0.498535H24.796C24.6612 0.498551 24.5286 0.531554 24.41 0.594574C24.2915 0.657595 24.1907 0.748654 24.1168 0.859555C24.0428 0.970456 23.9981 1.09772 23.9865 1.22989C23.9749 1.36205 23.9969 1.49498 24.0505 1.6167L26.0557 6.17124H15.3682L13.5753 2.09879H16.2491C16.3564 2.09981 16.4629 2.07988 16.5624 2.04013C16.6619 2.00039 16.7524 1.94163 16.8287 1.86724C16.905 1.79285 16.9656 1.70432 17.0069 1.60675C17.0482 1.50919 17.0695 1.40452 17.0695 1.29881C17.0695 1.1931 17.0482 1.08844 17.0069 0.990872C16.9656 0.893306 16.905 0.804771 16.8287 0.730384C16.7524 0.655998 16.6619 0.597235 16.5624 0.557491C16.4629 0.517748 16.3564 0.497811 16.2491 0.498835H8.93955C8.72542 0.500876 8.52076 0.586059 8.37007 0.735862C8.21938 0.885665 8.13485 1.08798 8.13485 1.29881C8.13485 1.50965 8.21938 1.71196 8.37007 1.86176C8.52076 2.01157 8.72542 2.09675 8.93955 2.09879H11.8038L13.9041 6.86978L10.4839 11.5197C9.16555 10.7921 7.64441 10.5014 6.14535 10.6907C4.64629 10.8799 3.24886 11.539 2.15966 12.5706C1.07047 13.6022 0.347329 14.9515 0.0971464 16.4189C-0.153036 17.8864 0.0830214 19.3942 0.77042 20.7193C1.45782 22.0445 2.56007 23.1168 3.91422 23.7775C5.26836 24.4383 6.80253 24.6525 8.2899 24.3886C9.77726 24.1246 11.1389 23.3964 12.1735 22.3117C13.208 21.227 13.8606 19.8433 14.0348 18.3653H19.499C19.6275 18.3653 19.7541 18.3353 19.8685 18.2778C19.9829 18.2203 20.0818 18.1369 20.1571 18.0345L27.1145 8.57593L28.4309 11.5658C26.9537 12.4088 25.8379 13.7516 25.2915 15.3442C24.7451 16.9369 24.8053 18.6707 25.4608 20.223C26.1163 21.7752 27.3225 23.0399 28.8547 23.7816C30.387 24.5234 32.1408 24.6915 33.7896 24.2547C35.4383 23.818 36.8697 22.8061 37.817 21.4076C38.7644 20.009 39.1632 18.3191 38.9391 16.6526C38.715 14.9861 37.8834 13.4566 36.5991 12.3489C35.3147 11.2412 33.6653 10.6309 31.9579 10.6316L31.958 10.6317ZM14.6557 8.57593L18.2608 16.7649H14.0349C13.8396 15.1118 13.0458 13.5832 11.799 12.4593L14.6557 8.57593ZM12.3959 16.765H8.63188L10.8378 13.7664C11.6731 14.5736 12.2199 15.6258 12.3959 16.765ZM7.04011 22.8983C6.21969 22.899 5.40983 22.7162 4.67165 22.3637C3.93346 22.0112 3.28624 21.4982 2.77883 20.8635C2.27142 20.2288 1.91708 19.4889 1.74254 18.6996C1.568 17.9104 1.57784 17.0924 1.77129 16.3074C1.96475 15.5224 2.33678 14.791 2.85931 14.1683C3.38183 13.5455 4.0412 13.0478 4.78765 12.7126C5.5341 12.3774 6.34812 12.2136 7.1683 12.2334C7.98847 12.2532 8.79336 12.4561 9.52222 12.827L6.38203 17.0958C6.29418 17.2152 6.24156 17.3562 6.22997 17.5032C6.21839 17.6502 6.24829 17.7975 6.31637 17.9288C6.38446 18.0601 6.48808 18.1704 6.6158 18.2473C6.74352 18.3243 6.89036 18.365 7.04011 18.365H12.396C12.2 19.6258 11.5523 20.7758 10.57 21.6073C9.58762 22.4387 8.33554 22.8967 7.04011 22.8983ZM19.6771 15.9591L16.0725 7.77119H25.7001L19.6771 15.9591ZM31.958 22.8983C30.7823 22.8987 29.6385 22.5224 28.6992 21.8262C27.76 21.13 27.0763 20.1518 26.7517 19.0393C26.427 17.9268 26.4789 16.7405 26.8996 15.6596C27.3202 14.5787 28.0867 13.662 29.0833 13.0479L31.2121 17.8833C31.2992 18.0759 31.4599 18.227 31.6595 18.3035C31.859 18.3801 32.0812 18.3759 32.2777 18.2921C32.4742 18.2082 32.6291 18.0514 32.7087 17.8557C32.7884 17.66 32.7864 17.4412 32.7031 17.2469L30.5732 12.4095C31.3179 12.2157 32.096 12.1804 32.8557 12.3061C33.6153 12.4319 34.339 12.7156 34.9784 13.1385C35.6178 13.5615 36.1582 14.1138 36.5636 14.7586C36.969 15.4035 37.2301 16.126 37.3294 16.8781C37.4287 17.6302 37.3639 18.3944 37.1394 19.1199C36.9149 19.8454 36.5358 20.5153 36.0275 21.0851C35.5191 21.6549 34.8932 22.1114 34.1915 22.4242C33.4897 22.7369 32.7283 22.8987 31.958 22.8987V22.8983Z" fill="white"/>
</svg>
